HIERARCHY
ROOT RootJoint
{
    OFFSET   0.000000   0.000000   0.000000
    CHANNELS 6 Xposition Yposition Zposition Xrotation Yrotation Zrotation
    JOINT pelvis_lowerback
    {
        OFFSET   0.000000   0.093605   0.000000
        CHANNELS 3 Xrotation Yrotation Zrotation
        JOINT lowerback_torso
        {
            OFFSET   0.000000   0.100000   0.000000
            CHANNELS 3 Xrotation Yrotation Zrotation
            JOINT torso_head
            {
                OFFSET   0.000000   0.282350   0.000000
                CHANNELS 3 Xrotation Yrotation Zrotation
                End Site
                {
                    OFFSET   0.000000   0.192650   0.000000
                }
            }
            JOINT rTorso_Clavicle
            {
                OFFSET  -0.001000   0.157500   0.000000
                CHANNELS 3 Xrotation Yrotation Zrotation
                JOINT rShoulder
                {
                    OFFSET  -0.117647   0.000000   0.000000
                    CHANNELS 3 Xrotation Yrotation Zrotation
                    JOINT rElbow
                    {
                        OFFSET  -0.245000   0.000000   0.000000
                        CHANNELS 3 Xrotation Yrotation Zrotation
                        JOINT rWrist
                        {
                            OFFSET  -0.240000   0.000000   0.000000
                            CHANNELS 3 Xrotation Yrotation Zrotation
                            End Site
                            {
                                OFFSET  -0.116353  -0.002500   0.000000
                            }
                        }
                    }
                }
            }
            JOINT lTorso_Clavicle
            {
                OFFSET   0.001000   0.157500   0.000000
                CHANNELS 3 Xrotation Yrotation Zrotation
                JOINT lShoulder
                {
                    OFFSET   0.117647   0.000000   0.000000
                    CHANNELS 3 Xrotation Yrotation Zrotation
                    JOINT lElbow
                    {
                        OFFSET   0.245000   0.000000   0.000000
                        CHANNELS 3 Xrotation Yrotation Zrotation
                        JOINT lWrist
                        {
                            OFFSET   0.240000   0.000000   0.000000
                            CHANNELS 3 Xrotation Yrotation Zrotation
                            End Site
                            {
                                OFFSET   0.116353  -0.002500   0.000000
                            }
                        }
                    }
                }
            }
        }
    }
    JOINT rHip
    {
        OFFSET  -0.100000  -0.051395   0.000000
        CHANNELS 3 Xrotation Yrotation Zrotation
        JOINT rKnee
        {
            OFFSET   0.000000  -0.410000   0.000000
            CHANNELS 3 Xrotation Yrotation Zrotation
            JOINT rAnkle
            {
                OFFSET   0.000000  -0.390000   0.000000
                CHANNELS 3 Xrotation Yrotation Zrotation
                JOINT rToeJoint
                {
                    OFFSET   0.000000  -0.050000   0.130000
                    CHANNELS 3 Xrotation Yrotation Zrotation
                    End Site
                    {
                        OFFSET  -0.010000   0.002000   0.060000
                    }
                }
            }
        }
    }
    JOINT lHip
    {
        OFFSET   0.100000  -0.051395   0.000000
        CHANNELS 3 Xrotation Yrotation Zrotation
        JOINT lKnee
        {
            OFFSET   0.000000  -0.410000   0.000000
            CHANNELS 3 Xrotation Yrotation Zrotation
            JOINT lAnkle
            {
                OFFSET   0.000000  -0.390000   0.000000
                CHANNELS 3 Xrotation Yrotation Zrotation
                JOINT lToeJoint
                {
                    OFFSET   0.000000  -0.050000   0.130000
                    CHANNELS 3 Xrotation Yrotation Zrotation
                    End Site
                    {
                        OFFSET   0.010000   0.002000   0.060000
                    }
                }
            }
        }
    }
}
MOTION
Frames: 7
Frame Time:   0.008333
 -2.368158   0.909470   3.985411  14.152573   1.816555  -1.826298   6.277842  -1.294510   0.789236  -4.365213  -1.252786   1.509627   1.065618   1.892443   0.906983  -7.876807 -11.345953 -13.625123 -25.695753  -1.756726  34.003626 -179.999993  42.821209 179.999994   0.853030   9.984321  -1.350280  -8.530663   7.908556  12.834944 -25.618582   2.044061 -44.134345 179.999355 -37.778475 179.999186   2.150180  -9.895664   3.427513 -17.346446  -5.920203 -11.432026   8.048800  -0.000016   0.000084   1.382990  -3.283954   6.453635  -8.369829  -0.000010   0.000030 -15.232863  -0.840337  11.751103   5.095296  -0.000005  -0.000003  -4.347403   2.939455  -2.684737   1.078630  -0.000002  -0.000014
 -2.368280   0.909428   3.985158  14.201889   1.819587  -1.819066   6.309394  -1.313084   0.817655  -4.362691  -1.260421   1.526912   1.055527   1.877556   0.883315  -7.863342 -11.305244 -13.672688 -25.677747  -1.681033  33.906526 -179.999950  42.840966 179.999957   0.925862   9.978932  -1.675734  -8.521973   7.859963  12.879669 -25.618639   1.994804 -44.120539 179.999341 -37.694716 179.999191   2.191707  -9.885379   3.714984 -17.442375  -5.885261 -11.443014   8.114321  -0.000012   0.000083   1.349227  -3.266932   6.465327  -8.355103  -0.000011   0.000030 -15.307354  -0.862485  11.747489   5.109715  -0.000005  -0.000004  -4.333895   2.953939  -2.683724   1.058500   0.000000  -0.000011
 -2.368378   0.909387   3.984929  14.249561   1.820230  -1.810033   6.337873  -1.331982   0.848757  -4.363190  -1.269352   1.545211   1.046004   1.863376   0.860747  -7.852315 -11.268663 -13.722598 -25.662201  -1.610760  33.811584 -179.999918  42.861474 179.999931   0.996734   9.973067  -2.002206  -8.515959   7.814789  12.924791 -25.620874   1.947934 -44.106093 179.999338 -37.614044 179.999210   2.231526  -9.874922   4.005636 -17.533979  -5.850690 -11.456211   8.175440  -0.000009   0.000079   1.318030  -3.249965   6.476749  -8.341445  -0.000011   0.000029 -15.377628  -0.881997  11.741184   5.123374  -0.000004  -0.000005  -4.321898   2.969151  -2.683460   1.042192   0.000001  -0.000009
 -2.368456   0.909350   3.984724  14.294177   1.818293  -1.800136   6.363558  -1.350775   0.881728  -4.364703  -1.279115   1.564949   1.037052   1.850110   0.840003  -7.842645 -11.235362 -13.771068 -25.648097  -1.545427  33.721797 -179.999897  42.880856 179.999915   1.064407   9.966942  -2.319465  -8.511129   7.772185  12.968654 -25.623890   1.903707 -44.092022 179.999348 -37.538398 179.999241   2.268986  -9.864681   4.288041 -17.620118  -5.817767 -11.469995   8.232691  -0.000006   0.000074   1.289738  -3.233796   6.487408  -8.329478  -0.000010   0.000027 -15.442201  -0.898473  11.733625   5.136153  -0.000004  -0.000006  -4.311574   2.984688  -2.683478   1.029035   0.000001  -0.000007
 -2.368519   0.909316   3.984541  14.335679   1.814081  -1.789679   6.386734  -1.369292   0.916005  -4.366833  -1.289438   1.586033   1.028590   1.837704   0.820951  -7.833790 -11.204922 -13.816763 -25.634935  -1.484730  33.637625 -179.999887  42.898946 179.999907   1.128905   9.960649  -2.625449  -8.506982   7.731911  13.010585 -25.627232   1.862055 -44.078625 179.999368 -37.467757 179.999281   2.304126  -9.854754   4.559858 -17.700978  -5.786657 -11.483959   8.286574  -0.000004   0.000067   1.264053  -3.218518   6.497311  -8.319135  -0.000009   0.000024 -15.501328  -0.912222  11.725261   5.148293  -0.000004  -0.000006  -4.302893   3.000424  -2.683699   1.018398   0.000001  -0.000006
 -2.368567   0.909284   3.984378  14.374275   1.807423  -1.778834   6.407623  -1.387208   0.951209  -4.369436  -1.299971   1.608222   1.020564   1.826109   0.803429  -7.825521 -11.177011 -13.859349 -25.622518  -1.428358  33.558981 -179.999884  42.915818 179.999904   1.190342   9.954244  -2.919854  -8.503323   7.693915  13.050378 -25.630705   1.822900 -44.065981 179.999395 -37.401825 179.999325   2.337056  -9.845167   4.820907 -17.777059  -5.757064 -11.497821   8.337433  -0.000002   0.000059   1.240765  -3.203896   6.506623  -8.310265  -0.000008   0.000021 -15.555151  -0.924247  11.716651   5.159709  -0.000003  -0.000007  -4.296043   3.015484  -2.683955   1.009845   0.000001  -0.000004
 -2.368604   0.909253   3.984232  14.410240   1.797484  -1.767382   6.426383  -1.404082   0.986742  -4.372442  -1.310258   1.631133   1.012945   1.815284   0.787294  -7.817741 -11.151283 -13.898871 -25.610781  -1.375959  33.485627 -179.999885  42.931563 179.999905   1.248844   9.947772  -3.202843  -8.500068   7.658226  13.088077 -25.634208   1.786172 -44.054038 179.999427 -37.340288 179.999372   2.367898  -9.835925   5.071606 -17.849047  -5.728918 -11.511457   8.385324  -0.000001   0.000051   1.219350  -3.189993   6.515411  -8.301574  -0.000007   0.000019 -15.603618  -0.935655  11.708188   5.170212  -0.000003  -0.000007  -4.291402   3.028854  -2.684186   1.003041   0.000001  -0.000003
